<?xml version="1.0" standalone="no"?>
<!DOCTYPE svg PUBLIC "-//W3C//DTD SVG 20010904//EN"
 "http://www.w3.org/TR/2001/REC-SVG-20010904/DTD/svg10.dtd">
<svg version="1.0" xmlns="http://www.w3.org/2000/svg"
 width="128.000000pt" height="128.000000pt" viewBox="0 0 128.000000 128.000000"
 preserveAspectRatio="xMidYMid meet">

<g transform="translate(0.000000,128.000000) scale(0.100000,-0.100000)"
fill="#000000" stroke="none">
<path d="M80 1271 c0 -28 102 -1136 105 -1139 1 -2 105 -32 229 -66 l225 -63
203 57 c112 31 215 60 231 64 15 3 27 13 27 21 0 21 89 1017 96 1083 l6 52
-561 0 c-320 0 -561 -4 -561 -9z m907 -205 c4 -3 -74 -5 -173 -4 l-179 2 135
6 c154 6 208 5 217 -4z m27 -64 c6 -28 5 -50 -2 -65 -10 -20 -11 -18 -13 18
l-2 40 -6 -48 -6 -48 -274 1 -273 1 6 -23 c3 -13 6 -44 6 -71 l0 -47 263 6
263 7 -8 -91 c-9 -101 0 -142 31 -142 11 0 21 3 24 8 2 4 2 2 1 -5 -2 -7 1
-15 6 -18 6 -4 10 -16 9 -28 0 -12 -3 -16 -6 -9 -2 6 -11 12 -19 12 -8 0 -14
5 -14 10 0 18 -30 11 -31 -7 -1 -13 -4 -10 -10 7 -6 17 -8 -2 -5 -60 2 -51 0
-73 -4 -55 -7 26 -8 23 -9 -20 0 -36 2 -46 9 -35 8 13 10 13 10 -2 0 -11 -10
-20 -27 -23 -29 -6 -38 -9 -191 -50 l-93 -26 -149 42 c-170 47 -154 29 -165
182 l-7 88 74 -3 73 -3 5 -55 5 -55 65 -18 c76 -21 169 -16 137 8 -16 12 -14
13 20 13 29 0 33 -2 18 -9 -13 -5 -15 -8 -5 -8 23 -1 36 11 48 44 l12 30 -6
-35 c-4 -23 -3 -32 4 -25 14 14 25 125 12 125 -5 0 -9 -9 -7 -19 1 -11 -2 -19
-8 -18 -5 1 -9 14 -8 29 2 18 -3 28 -15 31 -15 4 30 11 51 8 4 0 7 3 7 8 0 10
-255 23 -390 20 -75 -1 -96 1 -98 12 -7 38 -37 411 -33 415 2 2 165 3 360 2
l356 -3 9 -43z m-131 -119 c-46 -2 -120 -2 -165 0 -46 1 -9 3 82 3 91 0 128
-2 83 -3z m167 -91 c0 -10 -7 -19 -15 -19 -15 0 -20 18 -8 30 12 13 23 7 23
-11z m-50 -67 c0 -8 -4 -15 -10 -15 -5 0 -10 7 -10 15 0 8 5 15 10 15 6 0 10
-7 10 -15z m11 -85 c13 0 19 -7 19 -21 0 -16 -5 -20 -20 -16 -11 3 -20 0 -20
-6 0 -8 -3 -7 -9 1 -4 7 -6 25 -3 40 3 15 7 21 9 15 3 -7 13 -13 24 -13z
m-271 -170 c0 -5 -11 -10 -24 -10 -14 0 -28 5 -31 10 -4 6 7 10 24 10 17 0 31
-4 31 -10z m267 -92 c-3 -8 -6 -5 -6 6 -1 11 2 17 5 13 3 -3 4 -12 1 -19z
m-10 -50 c-3 -7 -5 -2 -5 12 0 14 2 19 5 13 2 -7 2 -19 0 -25z m-275 -103 c-4
-23 -2 -25 37 -25 35 0 41 -3 41 -21 0 -19 -5 -21 -45 -17 -25 2 -45 0 -45 -4
0 -5 12 -9 28 -9 23 -2 24 -2 5 -6 -13 -2 -23 -8 -23 -12 0 -5 -12 -6 -26 -3
-20 4 -25 2 -19 -8 5 -8 3 -11 -6 -8 -26 8 -22 54 5 76 15 11 26 27 26 35 0 8
6 18 13 20 6 3 13 6 13 6 1 1 -1 -10 -4 -24z"/>
</g>
</svg>
